<svg width="510" height="122" viewBox="0 0 510 122" fill="none" xmlns="http://www.w3.org/2000/svg">
<g id="navbar-logo">
<g id="Group 3">
<path id="Vector" d="M94 58.7103C94 32.6873 72.3487 13.1935 46.1331 15.1331C20.4461 17.0335 0 38.8779 0 63.9583C0 89.0386 20.4462 108.6 46.1331 107.632C72.3487 106.645 94 84.7332 94 58.7103Z" fill="white"/>
<g id="Group 4">
<path id="Vector_2" d="M14.9346 59.6598L29.7993 57.634L44.665 70.7975L61.8174 42.4455H80.1139L44.665 81.936L14.9346 59.6598Z" fill="#F9A826"/>
<path id="Vector_3" opacity="0.2" d="M14.9346 59.6598L29.7993 57.634L44.665 70.7975L61.8174 42.4455H80.1139L44.665 81.936L14.9346 59.6598Z" fill="black"/>
</g>
</g>
<path id="TODOS" d="M149.037 40.14L126.767 40.3744L126.655 29.8149L183.676 29.2149L183.787 39.7744L161.517 40.0087L162.113 96.6456L149.633 96.7769L149.037 40.14ZM224.212 96.9522C217.364 97.0242 211.173 95.6173 205.638 92.7314C200.103 89.7815 195.74 85.6991 192.549 80.4844C189.357 75.2057 187.727 69.3025 187.658 62.7749C187.589 56.2473 189.095 50.3431 192.176 45.0624C195.256 39.7177 199.532 35.5444 205.005 32.5427C210.477 29.477 216.637 27.9081 223.484 27.836C230.332 27.7639 236.524 29.2029 242.059 32.1528C247.594 35.0387 251.956 39.089 255.148 44.3038C258.339 49.5185 259.969 55.4216 260.038 62.0133C260.107 68.6049 258.602 74.5411 255.521 79.8218C252.441 85.1025 248.164 89.2757 242.692 92.3415C237.22 95.3432 231.059 96.8801 224.212 96.9522ZM224.097 86.0088C228.576 85.9616 232.598 84.9273 236.161 82.9057C239.723 80.8201 242.509 77.9746 244.519 74.3692C246.529 70.6999 247.51 66.6254 247.463 62.1456C247.416 57.6658 246.349 53.6448 244.264 50.0826C242.177 46.4563 239.332 43.6701 235.727 41.7239C232.122 39.7138 228.079 38.7323 223.6 38.7794C219.12 38.8265 215.099 39.8929 211.537 41.9785C207.974 44.0001 205.187 46.8456 203.178 50.5149C201.168 54.1203 200.186 58.1628 200.233 62.6426C200.281 67.1223 201.347 71.1753 203.434 74.8016C205.519 78.3638 208.365 81.15 211.97 83.1602C215.575 85.1064 219.617 86.0559 224.097 86.0088ZM272.912 28.2759L302.287 27.9668C309.454 27.8914 315.837 29.2323 321.434 31.9896C327.031 34.6829 331.392 38.5732 334.518 43.6606C337.643 48.684 339.24 54.5235 339.31 61.1791C339.38 67.8348 337.906 73.7386 334.888 78.8906C331.87 83.9787 327.591 87.9599 322.053 90.8343C316.515 93.6448 310.161 95.0877 302.994 95.1631L273.619 95.4722L272.912 28.2759ZM302.307 84.6098C307.234 84.5579 311.544 83.5845 315.237 81.6896C318.992 79.7299 321.844 77.0118 323.791 73.5351C325.802 69.9937 326.783 65.9192 326.735 61.3114C326.686 56.7037 325.62 52.6827 323.536 49.2484C321.515 45.7495 318.607 43.092 314.811 41.2758C311.079 39.395 306.75 38.4805 301.822 38.5323L285.503 38.704L285.988 84.7815L302.307 84.6098ZM384.328 95.2673C377.48 95.3394 371.289 93.9325 365.754 91.0465C360.219 88.0966 355.856 84.0143 352.665 78.7996C349.473 73.5209 347.843 67.6177 347.774 61.0901C347.706 54.5624 349.212 48.6582 352.292 43.3775C355.372 38.0328 359.648 33.8596 365.121 30.8579C370.593 27.7921 376.753 26.2232 383.601 26.1512C390.448 26.0791 396.64 27.518 402.175 30.468C407.71 33.3539 412.073 37.4042 415.264 42.6189C418.455 47.8336 420.085 53.7368 420.154 60.3284C420.224 66.9201 418.718 72.8562 415.637 78.1369C412.557 83.4177 408.28 87.5909 402.808 90.6566C397.336 93.6584 391.176 95.1953 384.328 95.2673ZM384.213 84.3239C388.693 84.2768 392.714 83.2424 396.277 81.2208C399.839 79.1352 402.625 76.2898 404.635 72.6844C406.645 69.0151 407.626 64.9405 407.579 60.4608C407.532 55.981 406.465 51.96 404.38 48.3978C402.294 44.7715 399.448 41.9853 395.843 40.0391C392.238 38.0289 388.196 37.0474 383.716 37.0946C379.236 37.1417 375.215 38.2081 371.653 40.2937C368.09 42.3153 365.304 45.1607 363.294 48.8301C361.284 52.4354 360.302 56.478 360.35 60.9577C360.397 65.4375 361.463 69.4905 363.55 73.1167C365.635 76.679 368.481 79.4652 372.086 81.4754C375.691 83.4216 379.733 84.3711 384.213 84.3239ZM454.577 94.5281C449.393 94.5827 444.361 93.8996 439.482 92.4788C434.667 91.0574 430.839 89.1456 427.997 86.7434L432.215 77.0025C434.99 79.1494 438.368 80.9059 442.351 82.2721C446.397 83.5736 450.436 84.2031 454.467 84.1607C459.459 84.1082 463.163 83.2692 465.578 81.6437C468.057 80.0175 469.282 77.8925 469.255 75.2686C469.234 73.3487 468.514 71.7882 467.093 70.5871C465.736 69.3213 463.998 68.3476 461.878 67.6658C459.759 66.9841 456.871 66.2144 453.214 65.3569C448.081 64.1948 443.908 63.0226 440.696 61.8404C437.547 60.6574 434.807 58.7982 432.477 56.2625C430.209 53.6623 429.052 50.1542 429.006 45.7385C428.967 42.0267 429.923 38.6564 431.876 35.6277C433.891 32.5344 436.905 30.0705 440.918 28.2362C444.995 26.4012 449.977 25.4527 455.865 25.3907C459.961 25.3476 463.998 25.8172 467.977 26.7994C471.955 27.7816 475.394 29.2175 478.295 31.1071L474.461 40.8439C471.499 39.147 468.413 37.8674 465.204 37.0051C461.995 36.1428 458.886 35.7275 455.878 35.7592C450.951 35.811 447.279 36.6817 444.865 38.3712C442.515 40.06 441.354 42.2804 441.383 45.0322C441.403 46.9521 442.092 48.513 443.448 49.7147C444.869 50.9159 446.639 51.8573 448.758 52.539C450.878 53.2208 453.766 53.9904 457.423 54.848C462.427 55.9474 466.536 57.1202 469.749 58.3665C472.961 59.5487 475.701 61.408 477.968 63.9443C480.299 66.4799 481.487 69.9236 481.533 74.2754C481.572 77.9872 480.583 81.3578 478.567 84.3871C476.615 87.4159 473.6 89.8477 469.523 91.6827C465.447 93.5177 460.464 94.4662 454.577 94.5281Z" fill="#F9A826"/>
</g>
</svg>
