<svg width="874" height="662" viewBox="0 0 874 662" fill="none" xmlns="http://www.w3.org/2000/svg">
<g id="undraw_Checklist_7dx2 1">
<g clip-path="url(#clip0)">
<path id="Vector" d="M87.9435 117.959L112.126 118.897L113.332 87.8049L89.1492 86.8671L87.9435 117.959Z" fill="#F9A826"/>
<path id="Vector_2" d="M198.238 195.759C198.238 195.759 231.728 179.758 231.192 193.577C230.656 207.396 197.434 216.487 197.434 216.487L198.238 195.759Z" fill="#FFB9B9"/>
<path id="Vector_3" d="M179.864 312.683C179.864 312.683 195.664 351.355 201.502 379.26C207.34 407.166 216.23 445.569 204.794 472.805C193.358 500.041 160.845 580.087 160.51 588.724C160.175 597.361 163.295 606.132 156.386 605.864C149.476 605.596 111.877 593.758 110.35 588.509C108.824 583.26 123.178 569.977 123.178 569.977L158.625 458.905L121.642 386.543L94.9665 494.495L89.7418 629.229C89.7418 629.229 64.0994 621.314 60.3768 628.09C60.3768 628.09 48.8882 612.075 47.4288 605.098C45.9694 598.122 52.8544 465.183 52.8544 465.183C52.8544 465.183 29.3171 313.765 48.3179 314.502C67.3188 315.239 141.743 269.686 179.864 312.683Z" fill="#2F2E41"/>
<path id="Vector_4" d="M156.654 598.954C156.654 598.954 174.181 637.693 175.841 639.487C177.502 641.282 188.923 659.024 180.287 658.689C171.65 658.354 151.257 648.914 136.246 634.492C121.236 620.07 101.446 595.084 103.24 593.423C105.034 591.763 117.327 587.05 117.327 587.05L156.654 598.954Z" fill="#2F2E41"/>
<path id="Vector_5" d="M86.622 620.458C86.622 620.458 87.6795 637.798 90.8663 644.842C94.053 651.885 93.6511 662.249 85.0144 661.914C76.3776 661.579 54.0561 657.254 54.0561 657.254C54.0561 657.254 52.7306 646.823 54.5249 645.162C56.3193 643.502 63.9655 624.769 60.7117 619.453C57.458 614.137 86.622 620.458 86.622 620.458Z" fill="#2F2E41"/>
<path id="Vector_6" d="M73.8446 57.7295C73.8446 57.7295 55.4324 86.4246 48.255 93.0661C41.0777 99.7076 61.27 114.33 61.27 114.33L97.4104 119.192C97.4104 119.192 96.9558 86.3049 98.8171 82.9172C100.678 79.5295 73.8446 57.7295 73.8446 57.7295Z" fill="#FFB9B9"/>
<path id="Vector_7" d="M105.258 95.2765C105.258 95.2765 97.8123 108.827 90.9029 108.559C83.9935 108.292 48.255 93.0661 46.7286 87.817C45.2022 82.568 34.8909 125.417 34.8909 125.417L122.34 279.313L143.671 264.571L133.336 174.213L124.847 125.445L105.258 95.2765Z" fill="#F9A826"/>
<path id="Vector_8" d="M43.5031 233.008C46.9914 240.305 49.1701 247.915 48.868 255.705C48.8546 256.05 48.8412 256.396 48.8105 256.741C47.983 272.728 42.0935 291.218 39.9805 304.664C38.4473 314.309 38.8837 321.35 44.5283 323.005C58.2131 326.995 42.533 329.847 95.478 347.47C148.423 365.092 157.663 349.881 157.797 346.426C157.931 342.972 150.299 316.726 152.093 315.066C153.887 313.406 177.199 336.799 184.243 333.612C191.286 330.425 185.046 312.884 185.046 312.884C185.046 312.884 169.18 275.94 169.515 267.303C169.849 258.666 145.48 217.933 145.48 217.933L128.905 110.033C128.905 110.033 122.531 95.9464 113.961 93.8841C105.392 91.8218 98.2812 96.7359 98.2812 96.7359L112.622 128.431L127.752 184.376L125.221 205.037C125.221 205.037 107.626 168.026 96.0708 153.739C84.5152 139.451 59.8776 105.626 59.8776 105.626C59.8776 105.626 54.1256 86.2182 58.4678 80.4182C62.8106 74.6011 40.3551 73.7303 30.7806 97.5782C25.706 110.218 17.4672 129.066 12.3061 146.615C7.70704 162.162 5.5346 176.696 10.0909 185.003C17.0549 197.694 34.5724 214.376 43.5031 233.008Z" fill="#575A89"/>
<path id="Vector_9" opacity="0.1" d="M10.0909 185.003C17.0549 197.694 34.5724 214.376 43.5031 233.008C45.8356 224.604 48.6813 215.909 48.6813 215.909C48.6813 215.909 59.5954 157.514 27.3117 142.422C21.9624 141.905 16.6124 143.4 12.3061 146.615C7.70704 162.162 5.5346 176.696 10.0909 185.003Z" fill="black"/>
<path id="Vector_10" d="M138.25 181.323L165.619 189.304L203.621 190.778L207.53 223.799L145.078 228.297C145.078 228.297 129.479 184.443 138.25 181.323Z" fill="#575A89"/>
<path id="Vector_11" d="M93.6197 292.349C93.6197 292.349 130.235 298.424 121.878 309.442C113.521 320.461 81.0842 308.877 81.0842 308.877L93.6197 292.349Z" fill="#FFB9B9"/>
<path id="Vector_12" opacity="0.1" d="M48.8105 256.741C47.983 272.728 42.0935 291.218 39.9805 304.664C51.6448 315.703 62.7367 325.441 66.9169 325.603C75.5536 325.938 89.4394 324.746 94.5545 326.674C99.6696 328.603 102.67 295.85 102.67 295.85C102.67 295.85 99.6167 285.352 85.9989 279.634C76.8072 275.766 59.188 265.274 48.8105 256.741Z" fill="black"/>
<path id="Vector_13" d="M27.7135 132.058C27.7135 132.058 -1.51745 127.465 0.0617258 175.965C1.64091 224.464 -3.01952 255.423 8.73702 264.528C20.4936 273.634 58.682 314.904 67.3187 315.239C75.9554 315.574 89.8413 314.382 94.9563 316.31C100.071 318.239 103.071 285.486 103.071 285.486C103.071 285.486 100.019 274.988 86.4008 269.27C72.7829 263.552 40.7001 243.279 40.968 236.369C41.236 229.46 49.0831 205.545 49.0831 205.545C49.0831 205.545 59.9973 147.15 27.7135 132.058Z" fill="#575A89"/>
<path id="Vector_14" d="M99.6209 100.219C120.624 100.219 137.651 83.1925 137.651 62.1889C137.651 41.1854 120.624 24.1587 99.6209 24.1587C78.6173 24.1587 61.5906 41.1854 61.5906 62.1889C61.5906 83.1925 78.6173 100.219 99.6209 100.219Z" fill="#FFB9B9"/>
<path id="Vector_15" d="M125.228 7.68052C126.145 8.47084 127.243 9.0221 128.425 9.28519C129.623 9.42959 131.025 8.65868 131.07 7.45348C131.94 9.25794 132.921 11.1811 134.698 12.107C136.474 13.0329 139.221 12.2565 139.477 10.2697C139.737 11.7782 140.404 13.187 141.407 14.3433C142.509 15.3942 144.508 15.6594 145.47 14.4791C144.692 18.7306 145.173 23.1029 144.928 27.4182C144.684 31.7334 143.533 36.3082 140.273 39.1458C135.518 43.284 128.368 42.2628 122.114 41.4787C121.168 41.2802 120.187 41.3339 119.268 41.6344C116.927 42.6321 117.033 45.8921 117.001 48.4374C116.891 57.3517 109.325 65.5561 100.449 66.3877C97.9776 66.6193 95.3006 66.2741 93.4068 64.6689C91.6311 63.1638 90.724 60.7105 88.6892 59.5798C85.3792 57.7405 81.3648 60.4229 78.9448 63.3354C76.5248 66.2478 74.1397 69.8304 70.3908 70.3635C65.4325 71.0686 61.6561 66.0156 59.8034 61.3629C57.2472 54.8416 56.0225 47.8746 56.2016 40.8726C56.3807 33.8706 57.9599 26.9753 60.8462 20.5933C71.199 -1.97424 106.565 -5.54376 125.228 7.68052Z" fill="#2F2E41"/>
<path id="Vector_16" d="M194.425 122.009L873.527 8.82501V342.986L194.425 364.545V122.009Z" fill="#F9A826"/>
<path id="Vector_17" d="M329.167 231.293C329.167 193.322 312.102 164.877 291.439 167.708C271.193 170.481 255.078 202.355 255.078 238.951C255.078 275.547 271.193 304.089 291.439 302.677C312.102 301.236 329.167 269.264 329.167 231.293Z" fill="white"/>
<path id="Vector_18" d="M787.292 165.126L381.182 210.152V184.937L787.292 135.028V165.126Z" fill="url(#paint0_linear)"/>
<path id="Vector_19" d="M787.292 229.803L381.182 274.829V249.613L787.292 199.704V229.803Z" fill="url(#paint1_linear)"/>
<path id="Vector_20" d="M258.7 233.84L273.683 231.534L288.667 246.518L305.956 214.245H324.398L288.667 259.197L258.7 233.84Z" fill="#F9A826"/>
<path id="Vector_21" opacity="0.2" d="M258.7 233.84L273.683 231.534L288.667 246.518L305.956 214.245H324.398L288.667 259.197L258.7 233.84Z" fill="black"/>
<path id="TODOS" d="M364.477 411.891L342.217 412.626L341.869 402.071L398.862 400.19L399.21 410.744L376.951 411.479L378.82 468.088L366.347 468.5L364.477 411.891ZM440.91 466.998C434.066 467.224 427.845 465.957 422.247 463.196C416.646 460.371 412.192 456.388 408.885 451.247C405.575 446.041 403.813 440.176 403.597 433.651C403.382 427.127 404.755 421.19 407.716 415.842C410.675 410.429 414.856 406.161 420.26 403.037C425.662 399.849 431.785 398.142 438.629 397.916C445.473 397.69 451.696 398.989 457.296 401.814C462.894 404.575 467.347 408.526 470.654 413.667C473.962 418.809 475.724 424.674 475.942 431.263C476.159 437.851 474.788 443.82 471.827 449.168C468.865 454.517 464.684 458.785 459.282 461.973C453.878 465.097 447.754 466.772 440.91 466.998ZM440.549 456.06C445.027 455.912 449.024 454.788 452.54 452.687C456.055 450.521 458.776 447.614 460.705 443.964C462.631 440.251 463.521 436.155 463.373 431.678C463.225 427.2 462.068 423.204 459.903 419.69C457.736 416.111 454.829 413.39 451.181 411.525C447.531 409.596 443.468 408.706 438.99 408.854C434.513 409.002 430.517 410.158 427.002 412.323C423.486 414.425 420.764 417.332 418.838 421.046C416.909 424.695 416.019 428.759 416.166 433.236C416.314 437.714 417.472 441.742 419.639 445.32C421.804 448.835 424.712 451.556 428.361 453.485C432.009 455.35 436.071 456.208 440.549 456.06ZM488.054 397.244L517.414 396.275C524.578 396.038 530.989 397.235 536.647 399.866C542.303 402.433 546.751 406.224 549.99 411.24C553.227 416.192 554.956 421.994 555.175 428.646C555.395 435.299 554.054 441.234 551.153 446.453C548.249 451.607 544.061 455.684 538.589 458.682C533.115 461.616 526.796 463.202 519.632 463.438L490.272 464.408L488.054 397.244ZM518.708 452.903C523.633 452.74 527.92 451.67 531.569 449.693C535.28 447.649 538.069 444.868 539.938 441.348C541.869 437.762 542.758 433.667 542.606 429.061C542.454 424.456 541.297 420.46 539.137 417.073C537.037 413.621 534.07 411.029 530.235 409.299C526.462 407.502 522.112 406.685 517.187 406.848L500.876 407.387L502.397 453.442L518.708 452.903ZM600.948 461.714C594.104 461.94 587.882 460.672 582.284 457.911C576.684 455.087 572.23 451.104 568.923 445.962C565.613 440.756 563.851 434.891 563.635 428.367C563.42 421.842 564.792 415.906 567.754 410.557C570.713 405.145 574.894 400.876 580.298 397.752C585.7 394.564 591.823 392.857 598.667 392.631C605.511 392.405 611.733 393.705 617.334 396.529C622.932 399.29 627.385 403.241 630.692 408.383C634 413.525 635.762 419.39 635.98 425.978C636.197 432.566 634.825 438.535 631.864 443.884C628.903 449.232 624.722 453.501 619.32 456.689C613.916 459.813 607.792 461.488 600.948 461.714ZM600.587 450.776C605.064 450.628 609.061 449.503 612.578 447.402C616.092 445.237 618.814 442.329 620.743 438.68C622.669 434.966 623.558 430.871 623.411 426.393C623.263 421.915 622.106 417.919 619.941 414.405C617.774 410.827 614.866 408.105 611.219 406.24C607.569 404.312 603.506 403.421 599.028 403.569C594.55 403.717 590.554 404.874 587.04 407.039C583.523 409.14 580.802 412.047 578.875 415.761C576.947 419.411 576.056 423.474 576.204 427.952C576.352 432.429 577.51 436.457 579.677 440.036C581.842 443.55 584.749 446.272 588.399 448.2C592.047 450.065 596.109 450.923 600.587 450.776ZM671.162 459.395C665.981 459.566 660.935 458.996 656.026 457.686C651.18 456.373 647.309 454.548 644.414 452.21L648.412 442.377C651.234 444.461 654.652 446.141 658.664 447.417C662.738 448.627 666.79 449.166 670.82 449.033C675.809 448.868 679.493 447.946 681.871 446.266C684.313 444.585 685.49 442.433 685.404 439.81C685.34 437.891 684.585 436.347 683.137 435.179C681.752 433.944 679.992 433.009 677.858 432.375C675.724 431.741 672.819 431.037 669.144 430.262C663.986 429.215 659.788 428.137 656.55 427.028C653.376 425.916 650.595 424.119 648.208 421.636C645.882 419.087 644.647 415.606 644.501 411.193C644.378 407.483 645.259 404.092 647.143 401.02C649.088 397.882 652.046 395.351 656.017 393.427C660.051 391.501 665.011 390.44 670.896 390.246C674.99 390.111 679.036 390.49 683.036 391.382C687.036 392.275 690.506 393.633 693.448 395.457L689.834 405.277C686.835 403.647 683.721 402.438 680.493 401.648C677.266 400.858 674.149 400.512 671.142 400.612C666.217 400.774 662.566 401.727 660.191 403.471C657.879 405.212 656.768 407.458 656.859 410.208C656.922 412.127 657.646 413.672 659.029 414.843C660.477 416.012 662.267 416.913 664.401 417.547C666.535 418.181 669.44 418.886 673.116 419.661C678.143 420.648 682.277 421.728 685.518 422.901C688.756 424.011 691.537 425.808 693.86 428.293C696.247 430.776 697.513 434.192 697.656 438.541C697.779 442.251 696.866 445.643 694.919 448.717C693.035 451.789 690.076 454.288 686.041 456.214C682.007 458.14 677.047 459.201 671.162 459.395Z" fill="#F9A826"/>
</g>
</g>
<defs>
<linearGradient id="paint0_linear" x1="381.182" y1="172.59" x2="787.292" y2="172.59" gradientUnits="userSpaceOnUse">
<stop stop-color="#DADADA"/>
<stop offset="1" stop-color="white"/>
</linearGradient>
<linearGradient id="paint1_linear" x1="155183" y1="18024.4" x2="320108" y2="18024.4" gradientUnits="userSpaceOnUse">
<stop stop-color="#DADADA"/>
<stop offset="1" stop-color="white"/>
</linearGradient>
<clipPath id="clip0">
<rect width="873.527" height="661.922" fill="white"/>
</clipPath>
</defs>
</svg>
